<?xml version="1.0" standalone="no"?>
<!DOCTYPE svg PUBLIC "-//W3C//DTD SVG 20010904//EN"
 "http://www.w3.org/TR/2001/REC-SVG-20010904/DTD/svg10.dtd">
<svg version="1.0" xmlns="http://www.w3.org/2000/svg"
 width="512.000000pt" height="512.000000pt" viewBox="0 0 512.000000 512.000000"
 preserveAspectRatio="xMidYMid meet">
<metadata>
Created by potrace 1.14, written by Peter Selinger 2001-2017
</metadata>
<g transform="translate(0.000000,512.000000) scale(0.100000,-0.100000)"
fill="#000000" stroke="none">
<path d="M0 2560 l0 -2560 2560 0 2560 0 0 2560 0 2560 -2560 0 -2560 0 0
-2560z m3610 1914 c148 -44 255 -162 267 -295 8 -85 -12 -151 -73 -241 -29
-43 -50 -78 -47 -78 4 0 -2 -7 -13 -15 -10 -8 -15 -15 -10 -15 6 0 1 -7 -10
-15 -10 -8 -15 -15 -9 -15 5 0 -1 -7 -13 -16 -13 -9 -21 -22 -18 -30 3 -8 2
-13 -2 -13 -19 3 -26 -2 -13 -10 11 -7 10 -13 -4 -35 -16 -25 -44 -39 -29 -14
5 7 3 8 -5 3 -9 -5 -10 -10 -2 -18 9 -9 -1 -43 -18 -57 -3 -3 -19 -31 -36 -62
-16 -32 -33 -58 -37 -58 -5 0 -8 -7 -8 -15 0 -8 -8 -24 -17 -35 -10 -11 -29
-41 -43 -68 -14 -26 -42 -72 -63 -103 -20 -31 -37 -61 -37 -67 0 -6 -6 -17
-13 -24 -6 -7 -21 -30 -32 -51 -11 -21 -34 -55 -52 -75 -18 -20 -38 -50 -44
-65 -11 -26 -16 -28 -56 -25 -43 3 -45 2 -80 -49 l-36 -53 -34 47 c-32 46 -36
48 -76 45 -59 -4 -84 4 -91 30 -3 13 -19 38 -35 55 -15 18 -45 57 -66 88 -21
30 -42 55 -47 55 -4 0 -8 3 -7 8 2 14 -13 52 -21 52 -5 0 -12 9 -15 20 -8 24
172 293 250 373 27 29 49 55 48 58 -1 3 25 34 57 70 33 35 60 70 60 77 0 7 5
10 10 7 6 -3 10 1 10 9 0 9 3 16 8 16 4 0 32 31 62 70 40 50 62 69 79 70 23 0
23 -1 7 -27 -16 -27 -16 -27 8 2 l26 30 -717 3 c-394 1 -719 0 -722 -3 -2 -3
4 -13 14 -23 18 -16 18 -16 6 1 -12 15 -10 17 22 17 26 0 43 -8 66 -31 17 -17
31 -33 31 -36 0 -3 20 -31 44 -63 24 -32 49 -68 56 -80 6 -12 19 -29 28 -39 9
-10 24 -28 32 -40 8 -13 25 -35 37 -49 12 -14 30 -42 40 -61 20 -38 29 -52 86
-118 34 -41 42 -55 38 -76 -1 -5 3 -6 8 -2 6 3 19 -12 31 -35 11 -22 25 -40
30 -40 6 0 10 -7 10 -15 0 -8 4 -15 9 -15 5 0 17 -17 26 -37 26 -55 55 -94 66
-88 5 4 7 0 4 -7 -3 -7 13 -35 35 -62 22 -26 40 -52 40 -58 0 -11 51 -81 63
-86 4 -2 7 -8 7 -12 0 -12 111 -183 124 -192 6 -4 7 -8 2 -8 -4 0 8 -20 28
-44 20 -24 36 -48 36 -53 0 -4 11 -21 25 -38 13 -16 28 -34 33 -40 4 -5 15
-25 22 -42 8 -18 19 -33 23 -33 5 0 5 -4 2 -10 -3 -5 -2 -10 4 -10 8 0 101
-144 101 -157 0 -2 13 -24 30 -48 17 -24 30 -47 30 -50 0 -4 14 -23 30 -42 17
-18 30 -38 30 -44 0 -5 27 -50 60 -99 33 -49 60 -92 60 -94 0 -9 59 -105 111
-183 27 -39 49 -76 49 -82 0 -6 4 -11 8 -11 5 0 15 -12 23 -27 14 -28 85 -143
121 -195 21 -31 23 -42 6 -32 -7 4 -8 3 -4 -5 4 -6 11 -9 16 -6 5 3 11 1 15
-5 3 -5 1 -10 -5 -10 -6 0 -8 -5 -5 -10 4 -6 11 -7 17 -4 7 5 8 2 3 -6 -5 -8
-1 -18 10 -27 11 -7 16 -13 13 -13 -4 0 31 -55 76 -123 91 -134 113 -194 103
-277 -18 -153 -153 -282 -324 -310 -67 -11 -1738 -12 -1913 -1 -95 6 -126 12
-175 34 -72 34 -147 104 -183 172 -23 43 -27 62 -27 135 0 104 3 111 172 353
68 98 121 183 117 188 -3 5 0 8 8 7 7 -2 12 3 10 10 -3 18 17 54 28 47 5 -3
12 0 16 6 5 8 3 9 -6 4 -8 -5 -11 -3 -8 6 3 8 10 13 16 12 6 -2 21 12 32 30
l22 32 -26 -30 c-19 -22 -26 -26 -26 -13 0 9 5 20 10 23 6 4 8 11 5 16 -4 5
-2 9 3 9 5 0 15 12 23 28 7 15 24 41 36 58 13 17 21 33 18 36 -3 3 1 11 10 18
8 7 15 17 15 22 0 5 9 18 20 30 10 12 17 24 15 28 -3 4 2 13 10 20 8 7 15 17
15 22 0 5 16 33 35 62 19 29 35 56 35 60 0 5 9 20 20 36 11 15 16 31 12 35 -4
4 15 5 42 3 l48 -3 40 58 40 58 40 -58 c47 -69 62 -85 53 -60 -6 14 -2 17 23
17 22 0 32 -6 37 -20 4 -11 11 -18 16 -15 5 4 9 2 9 -4 0 -5 16 -33 35 -62 19
-30 35 -59 35 -66 0 -7 4 -13 9 -13 5 0 16 -15 24 -33 9 -18 25 -41 36 -52 36
-32 29 -46 -119 -223 -11 -13 -20 -25 -20 -27 0 -2 -11 -16 -25 -31 -13 -14
-22 -30 -20 -34 6 -10 -24 -22 -35 -15 -5 3 -12 0 -16 -6 -4 -8 -3 -9 4 -5 7
4 12 1 12 -9 0 -11 -5 -15 -15 -12 -8 4 -17 1 -21 -5 -4 -7 -3 -8 4 -4 7 4 12
1 12 -9 0 -11 -5 -15 -15 -12 -9 4 -23 -6 -37 -26 -13 -18 -16 -28 -7 -22 8 6
5 1 -7 -10 -28 -26 -228 -315 -222 -321 3 -2 321 -3 708 -2 l703 3 -106 133
c-59 73 -123 157 -143 187 -20 30 -41 55 -45 55 -5 0 -9 7 -9 15 0 8 -4 15 -8
15 -5 0 -37 40 -71 90 -34 49 -67 95 -74 102 -7 7 -28 33 -48 58 -20 25 -49
59 -64 75 -15 17 -42 53 -60 80 -18 28 -41 60 -51 72 -66 77 -119 146 -119
153 0 5 -9 19 -20 32 -11 13 -36 44 -54 71 -19 26 -38 47 -43 47 -4 0 -8 7 -8
15 0 8 -3 15 -7 15 -5 0 -21 20 -36 45 -16 25 -33 45 -37 45 -5 0 -23 25 -40
55 -17 30 -37 61 -44 68 -16 15 -106 146 -106 153 0 7 -94 134 -119 162 -12
12 -21 24 -21 26 0 8 -71 121 -88 140 -11 12 -35 48 -55 81 -20 33 -49 74 -63
90 -14 17 -33 44 -41 60 -19 36 -102 162 -150 228 -19 26 -32 47 -28 47 6 0
-28 53 -50 76 -11 13 -81 121 -105 163 -8 14 -29 46 -45 71 -17 25 -36 57 -44
73 -8 15 -18 27 -21 27 -4 0 -13 14 -20 30 -7 17 -17 30 -23 30 -6 0 -7 3 -4
7 4 3 2 12 -5 20 -6 7 -8 16 -5 20 4 3 2 12 -4 19 -13 16 -13 126 0 172 24 80
105 174 191 217 85 44 69 43 1150 44 929 1 1041 0 1090 -15z"/>
<path d="M1414 4434 c-18 -14 -18 -15 4 -4 12 6 22 13 22 15 0 8 -5 6 -26 -11z"/>
<path d="M1344 4378 l-29 -33 33 29 c30 28 37 36 29 36 -2 0 -16 -15 -33 -32z"/>
<path d="M1299 4323 c-13 -16 -12 -17 4 -4 9 7 17 15 17 17 0 8 -8 3 -21 -13z"/>
<path d="M1251 4214 c0 -11 3 -14 6 -6 3 7 2 16 -1 19 -3 4 -6 -2 -5 -13z"/>
<path d="M1242 4150 c0 -14 2 -19 5 -12 2 6 2 18 0 25 -3 6 -5 1 -5 -13z"/>
<path d="M1251 4084 c0 -11 3 -14 6 -6 3 7 2 16 -1 19 -3 4 -6 -2 -5 -13z"/>
<path d="M1270 4021 c0 -6 4 -13 10 -16 6 -3 7 1 4 9 -7 18 -14 21 -14 7z"/>
<path d="M3170 3860 c-12 -16 -19 -30 -16 -30 2 0 14 14 26 30 12 17 19 30 16
30 -2 0 -14 -13 -26 -30z"/>
<path d="M1940 3876 c0 -2 8 -10 18 -17 15 -13 16 -12 3 4 -13 16 -21 21 -21
13z"/>
<path d="M1390 3840 c12 -16 24 -30 26 -30 3 0 -4 14 -16 30 -12 17 -24 30
-26 30 -3 0 4 -13 16 -30z"/>
<path d="M3089 3743 c-13 -16 -12 -17 4 -4 16 13 21 21 13 21 -2 0 -10 -8 -17
-17z"/>
<path d="M2050 3716 c0 -2 8 -10 18 -17 15 -13 16 -12 3 4 -13 16 -21 21 -21
13z"/>
<path d="M1480 3706 c0 -2 8 -10 18 -17 15 -13 16 -12 3 4 -13 16 -21 21 -21
13z"/>
<path d="M3599 3643 c-13 -16 -12 -17 4 -4 9 7 17 15 17 17 0 8 -8 3 -21 -13z"/>
<path d="M2999 3613 c-13 -16 -12 -17 4 -4 16 13 21 21 13 21 -2 0 -10 -8 -17
-17z"/>
<path d="M3520 3530 c-12 -16 -19 -30 -16 -30 2 0 14 14 26 30 12 17 19 30 16
30 -2 0 -14 -13 -26 -30z"/>
<path d="M2909 3483 c-13 -16 -12 -17 4 -4 16 13 21 21 13 21 -2 0 -10 -8 -17
-17z"/>
<path d="M2250 3426 c0 -2 8 -10 18 -17 15 -13 16 -12 3 4 -13 16 -21 21 -21
13z"/>
<path d="M3430 3400 c-12 -16 -19 -30 -16 -30 2 0 14 14 26 30 12 17 19 30 16
30 -2 0 -14 -13 -26 -30z"/>
<path d="M1700 3386 c0 -2 8 -10 18 -17 15 -13 16 -12 3 4 -13 16 -21 21 -21
13z"/>
<path d="M3349 3283 c-13 -16 -12 -17 4 -4 9 7 17 15 17 17 0 8 -8 3 -21 -13z"/>
<path d="M2360 3266 c0 -2 8 -10 18 -17 15 -13 16 -12 3 4 -13 16 -21 21 -21
13z"/>
<path d="M1790 3256 c0 -2 8 -10 18 -17 15 -13 16 -12 3 4 -13 16 -21 21 -21
13z"/>
<path d="M2820 3186 c0 -2 8 -10 18 -17 15 -13 16 -12 3 4 -13 16 -21 21 -21
13z"/>
<path d="M3259 3153 c-13 -16 -12 -17 4 -4 16 13 21 21 13 21 -2 0 -10 -8 -17
-17z"/>
<path d="M3189 3053 c-13 -16 -12 -17 4 -4 9 7 17 15 17 17 0 8 -8 3 -21 -13z"/>
<path d="M2670 2816 c0 -2 8 -10 18 -17 15 -13 16 -12 3 4 -13 16 -21 21 -21
13z"/>
<path d="M2780 2656 c0 -2 8 -10 18 -17 15 -13 16 -12 3 4 -13 16 -21 21 -21
13z"/>
<path d="M2210 2646 c0 -2 8 -10 18 -17 15 -13 16 -12 3 4 -13 16 -21 21 -21
13z"/>
<path d="M2870 2526 c0 -2 8 -10 18 -17 15 -13 16 -12 3 4 -13 16 -21 21 -21
13z"/>
<path d="M2980 2366 c0 -2 8 -10 18 -17 15 -13 16 -12 3 4 -13 16 -21 21 -21
13z"/>
<path d="M2520 2196 c0 -2 8 -10 18 -17 15 -13 16 -12 3 4 -13 16 -21 21 -21
13z"/>
<path d="M3200 2050 c12 -16 24 -30 26 -30 3 0 -4 14 -16 30 -12 17 -24 30
-26 30 -3 0 4 -13 16 -30z"/>
<path d="M2200 2036 c0 -2 8 -10 18 -17 15 -13 16 -12 3 4 -13 16 -21 21 -21
13z"/>
<path d="M2630 2036 c0 -2 8 -10 18 -17 15 -13 16 -12 3 4 -13 16 -21 21 -21
13z"/>
<path d="M1889 2003 c-13 -16 -12 -17 4 -4 9 7 17 15 17 17 0 8 -8 3 -21 -13z"/>
<path d="M3290 1920 c12 -16 24 -30 26 -30 3 0 -4 14 -16 30 -12 17 -24 30
-26 30 -3 0 4 -13 16 -30z"/>
<path d="M1810 1890 c-12 -16 -19 -30 -16 -30 2 0 14 14 26 30 12 17 19 30 16
30 -2 0 -14 -13 -26 -30z"/>
<path d="M2290 1906 c0 -2 8 -10 18 -17 15 -13 16 -12 3 4 -13 16 -21 21 -21
13z"/>
<path d="M2720 1906 c0 -2 8 -10 18 -17 15 -13 16 -12 3 4 -13 16 -21 21 -21
13z"/>
<path d="M3380 1786 c0 -2 8 -10 18 -17 15 -13 16 -12 3 4 -13 16 -21 21 -21
13z"/>
<path d="M1709 1743 c-13 -16 -12 -17 4 -4 9 7 17 15 17 17 0 8 -8 3 -21 -13z"/>
<path d="M2279 1733 c-13 -16 -12 -17 4 -4 16 13 21 21 13 21 -2 0 -10 -8 -17
-17z"/>
<path d="M2830 1746 c0 -2 8 -10 18 -17 15 -13 16 -12 3 4 -13 16 -21 21 -21
13z"/>
<path d="M3490 1630 c12 -16 24 -30 26 -30 3 0 -4 14 -16 30 -12 17 -24 30
-26 30 -3 0 4 -13 16 -30z"/>
<path d="M2180 1590 c-12 -16 -19 -30 -16 -30 2 0 14 14 26 30 12 17 19 30 16
30 -2 0 -14 -13 -26 -30z"/>
<path d="M2960 1560 c12 -16 24 -30 26 -30 3 0 -4 14 -16 30 -12 17 -24 30
-26 30 -3 0 4 -13 16 -30z"/>
<path d="M3600 1470 c12 -16 24 -30 26 -30 3 0 -4 14 -16 30 -12 17 -24 30
-26 30 -3 0 4 -13 16 -30z"/>
<path d="M3050 1430 c12 -16 24 -30 26 -30 3 0 -4 14 -16 30 -12 17 -24 30
-26 30 -3 0 4 -13 16 -30z"/>
<path d="M3160 1270 c12 -16 24 -30 26 -30 3 0 -4 14 -16 30 -12 17 -24 30
-26 30 -3 0 4 -13 16 -30z"/>
<path d="M3251 1140 c29 -45 29 -45 29 -34 0 5 -12 23 -26 39 l-26 30 23 -35z"/>
</g>
</svg>
